HIERARCHY
ROOT Hips
{
 OFFSET 0.000000 0.000000 0.000000
 CHANNELS 6 Xposition Yposition Zposition Yrotation Xrotation Zrotation
 JOINT Chest
 {
  OFFSET 0.000000 10.932484 0.001155
  CHANNELS 3 Yrotation Xrotation Zrotation
  JOINT Chest2
  {
   OFFSET 0.000000 12.093805 -0.002099
   CHANNELS 3 Yrotation Xrotation Zrotation
   JOINT Chest3
   {
    OFFSET 0.000000 10.927800 0.000000
    CHANNELS 3 Yrotation Xrotation Zrotation
    JOINT Chest4
    {
     OFFSET 0.000000 10.927800 0.000000
     CHANNELS 3 Yrotation Xrotation Zrotation
     JOINT Neck
     {
      OFFSET 0.000000 15.355144 0.000000
      CHANNELS 3 Yrotation Xrotation Zrotation
      JOINT Head
      {
       OFFSET 0.000000 10.170446 -0.004991
       CHANNELS 3 Yrotation Xrotation Zrotation
       End Site
       {
        OFFSET 0.000000 19.463738 -0.002607
       }
      }
     }
     JOINT RightCollar
     {
      OFFSET -3.333126 8.566406 0.000000
      CHANNELS 3 Yrotation Xrotation Zrotation
      JOINT RightShoulder
      {
       OFFSET -15.529370 0.000000 0.000000
       CHANNELS 3 Yrotation Xrotation Zrotation
       JOINT RightElbow
       {
        OFFSET 0.000000 -33.145213 0.000000
        CHANNELS 3 Yrotation Xrotation Zrotation
        JOINT RightWrist
        {
         OFFSET 0.000000 -27.120720 -0.000000
         CHANNELS 3 Yrotation Xrotation Zrotation
         End Site
         {
          OFFSET 0.000000 -20.306483 0.000000
         }
        }
       }
      }
     }
     JOINT LeftCollar
     {
      OFFSET 3.333126 8.566406 0.000000
      CHANNELS 3 Yrotation Xrotation Zrotation
      JOINT LeftShoulder
      {
       OFFSET 15.529370 0.000000 0.000000
       CHANNELS 3 Yrotation Xrotation Zrotation
       JOINT LeftElbow
       {
        OFFSET 0.000000 -33.145213 0.000000
        CHANNELS 3 Yrotation Xrotation Zrotation
        JOINT LeftWrist
        {
         OFFSET 0.000000 -27.120720 -0.000000
         CHANNELS 3 Yrotation Xrotation Zrotation
         End Site
         {
          OFFSET 0.000000 -20.306483 0.000000
         }
        }
       }
      }
     }
    }
   }
  }
 }
 JOINT RightHip
 {
  OFFSET -8.869179 -0.005661 -0.000578
  CHANNELS 3 Yrotation Xrotation Zrotation
  JOINT RightKnee
  {
   OFFSET 0.000000 -45.835245 0.000547
   CHANNELS 3 Yrotation Xrotation Zrotation
   JOINT RightAnkle
   {
    OFFSET 0.000000 -44.890236 0.000924
    CHANNELS 3 Yrotation Xrotation Zrotation
    JOINT RightToe
    {
     OFFSET 0.000000 -8.082775 18.351045
     CHANNELS 3 Yrotation Xrotation Zrotation
     End Site
     {
      OFFSET 0.000000 -1.681997 7.345339
     }
    }
   }
  }
 }
 JOINT LeftHip
 {
  OFFSET 8.869179 -0.005661 -0.000578
  CHANNELS 3 Yrotation Xrotation Zrotation
  JOINT LeftKnee
  {
   OFFSET 0.000000 -45.835245 0.000547
   CHANNELS 3 Yrotation Xrotation Zrotation
   JOINT LeftAnkle
   {
    OFFSET 0.000000 -44.890236 0.000924
    CHANNELS 3 Yrotation Xrotation Zrotation
    JOINT LeftToe
    {
     OFFSET 0.000000 -8.082775 18.351045
     CHANNELS 3 Yrotation Xrotation Zrotation
     End Site
     {
      OFFSET 0.000000 -1.681997 7.345339
     }
    }
   }
  }
 }
}
MOTION
Frames: 6
Frame Time: 0.008333
306.616612 53.609797 91.668725 -51.128855 -25.886162 -0.466147 -0.494345 15.686067 -0.356722 -0.164494 6.977980 -0.424677 -0.164494 6.977980 -0.424677 -0.118347 5.233603 -0.316226 -4.591973 12.153349 -1.448436 -8.155519 -13.567489 -0.814281 -5.783729 1.384842 6.028453 25.932310 -30.785308 -27.909162 10.570686 -33.945814 7.955481 34.027088 -4.961476 -23.547114 0.840721 -0.294944 -5.560672 -23.370045 -32.101980 34.048407 12.549713 -27.286347 -14.676031 -26.785086 -7.201142 16.221204 -20.544954 -62.156823 5.364176 -176.439359 74.696079 174.476448 2.973227 -16.091716 -1.997752 -0.005430 0.380944 0.010249 15.356038 -64.035074 1.392027 -176.128898 65.561405 -172.468737 3.914158 -23.442781 3.982317 -0.126549 -1.089238 -0.048919
306.613135 53.612342 91.666552 -51.125066 -25.882339 -0.470739 -0.493880 15.688167 -0.357126 -0.164509 6.979432 -0.425637 -0.164509 6.979432 -0.425637 -0.118347 5.234692 -0.316945 -4.590841 12.142954 -1.460764 -8.148534 -13.587511 -0.837680 -5.772884 1.383725 6.025562 25.930390 -30.784539 -27.912142 10.566645 -33.944864 7.957120 34.023225 -4.963374 -23.558585 0.842214 -0.301153 -5.560635 -23.363483 -32.097810 34.046354 12.516901 -27.269860 -14.659474 -26.759952 -7.238262 16.231166 -20.547157 -62.154557 5.371017 -176.434106 74.696868 174.486565 2.962864 -16.095752 -1.997761 -0.005408 0.382050 0.009174 15.337359 -64.033607 1.405986 -176.126042 65.564492 -172.470514 3.969295 -23.448533 3.957137 -0.121951 -1.087525 -0.049012
306.610161 53.613921 91.664604 -51.120742 -25.878009 -0.474578 -0.492265 15.691241 -0.359155 -0.163689 6.981044 -0.426482 -0.163689 6.981044 -0.426482 -0.117721 5.235901 -0.317587 -4.592505 12.133504 -1.473226 -8.146789 -13.605675 -0.860210 -5.765518 1.378566 6.026760 25.934266 -30.779958 -27.923040 10.556731 -33.946742 7.959769 34.011760 -4.966693 -23.560870 0.842103 -0.308968 -5.561943 -23.362838 -32.097686 34.046397 12.523614 -27.283410 -14.666879 -26.757003 -7.234985 16.232188 -20.556751 -62.155582 5.382828 -176.390448 74.695131 174.532829 2.944462 -16.099593 -1.994113 -0.005185 0.381740 0.007352 15.329671 -64.038109 1.413335 -176.090193 65.563749 -172.435363 3.963314 -23.443973 3.964984 -0.123548 -1.088951 -0.051866
306.608394 53.616187 91.665211 -51.117400 -25.878206 -0.476622 -0.491651 15.694150 -0.364544 -0.163066 6.981988 -0.427164 -0.163066 6.981988 -0.427164 -0.117246 5.236608 -0.318104 -4.591113 12.128876 -1.484767 -8.139404 -13.614961 -0.882556 -5.766206 1.383920 6.028357 25.953017 -30.780723 -27.941766 10.545061 -33.944244 7.964450 33.996483 -4.972392 -23.562785 0.842015 -0.306720 -5.563415 -23.360118 -32.093949 34.051902 12.496160 -27.271961 -14.656983 -26.727760 -7.267114 16.251401 -20.554447 -62.153291 5.377991 -176.368853 74.695048 174.556980 2.951348 -16.102633 -1.996047 -0.005558 0.382348 0.006118 15.313463 -64.036025 1.432656 -176.064072 65.567144 -172.408565 3.862077 -23.437373 4.009421 -0.130330 -1.086950 -0.056938
306.605899 53.617199 91.663058 -51.112732 -25.874012 -0.482206 -0.489305 15.696394 -0.367855 -0.161381 6.984067 -0.428402 -0.161381 6.984067 -0.428402 -0.115968 5.238167 -0.319050 -4.590620 12.122307 -1.495352 -8.134216 -13.627756 -0.902589 -5.770496 1.383999 6.030205 25.968225 -30.781221 -27.953648 10.535146 -33.943715 7.966978 33.977049 -4.973101 -23.565092 0.834995 -0.314440 -5.564566 -23.368469 -32.084982 34.064853 12.517463 -27.282585 -14.672689 -26.722592 -7.266674 16.249147 -20.570899 -62.153918 5.393978 -176.350030 74.695071 174.574411 2.960511 -16.105201 -1.997989 -0.004703 0.383068 0.004115 15.293615 -64.041208 1.454783 -176.057413 65.569097 -172.404821 3.830928 -23.432895 4.025113 -0.131463 -1.087732 -0.060333
306.603350 53.617393 91.661384 -51.110270 -25.872932 -0.486169 -0.485262 15.697107 -0.376812 -0.159402 6.984127 -0.430187 -0.159402 6.984127 -0.430187 -0.114465 5.238211 -0.320409 -4.590157 12.121681 -1.500721 -8.131070 -13.629235 -0.912997 -5.772863 1.390702 6.037701 25.981860 -30.772570 -27.970904 10.515684 -33.942830 7.978161 33.959224 -4.986837 -23.572676 0.831435 -0.309633 -5.557289 -23.369382 -32.078211 34.069282 12.494597 -27.269929 -14.655256 -26.694715 -7.299684 16.258951 -20.583891 -62.153855 5.407524 -176.327367 74.692456 174.594675 2.962984 -16.109044 -1.998579 -0.005812 0.383646 0.003240 15.275125 -64.038613 1.469760 -176.051622 65.570472 -172.405823 3.875226 -23.442104 4.010332 -0.131635 -1.082691 -0.061583
